<?xml version="1.0" encoding="UTF-8" standalone="no"?>
<!-- Created with Inkscape (http://www.inkscape.org/) -->

<svg
   width="18in"
   height="16in"
   viewBox="0 0 457.20001 406.4"
   version="1.1"
   id="svg1"
   xml:space="preserve"
   xmlns="http://www.w3.org/2000/svg"
   xmlns:svg="http://www.w3.org/2000/svg"><defs
     id="defs1" /><g
     id="layer1"><path
       style="fill:#ffffff;stroke:#000000;stroke-width:0.2;stroke-dasharray:none;stroke-opacity:1"
       d="m 195.06117,153.49226 c 0,0 12.02252,-117.112164 -48.00744,-111.532456 -75.648103,7.031394 -65.050176,109.210536 -61.34285,108.865376 50.6521,-4.71585 109.35029,2.66708 109.35029,2.66708 z"
       id="path2" /><path
       style="fill:#000000;stroke:#ff0000;stroke-width:0"
       d="m 139.77988,149.85533 c 0,0 -6.54647,-25.94342 20.12433,-29.33789 26.6708,-3.39446 22.10198,33.39839 17.45725,32.00497 -4.84924,-1.45476 -32.73234,-2.66708 -37.58158,-2.66708 z"
       id="path3" /><path
       style="fill:#ffffff;stroke:#1a1a1a;stroke-width:0.2;stroke-dasharray:none"
       d="m 258.33133,152.52241 c 0,0 -12.02252,-117.112161 48.00744,-111.532453 75.6481,7.031394 65.05018,109.210543 61.34285,108.865373 -50.65211,-4.71585 -109.35029,2.66708 -109.35029,2.66708 z"
       id="path4" /><path
       style="fill:#000000;stroke:#ff0000;stroke-width:0"
       d="m 313.61262,148.88548 c 0,0 6.54647,-25.94341 -20.12433,-29.33788 -26.6708,-3.39446 -22.10198,33.39839 -17.45725,32.00497 4.84923,-1.45477 32.73234,-2.66709 37.58158,-2.66709 z"
       id="path5" /><path
       style="fill:#000000;stroke:#ff0000;stroke-width:0"
       d="m 399.45654,215.5625 c 0,0 -49.46225,7.03139 -52.12931,7.75878 -2.66709,0.72738 -8.00123,33.45974 -14.5477,33.45974 -6.5465,0 -22.30651,-39.52129 -24.73111,-39.76376 -2.42463,-0.24246 -160.02483,0 -160.50976,3.63693 -0.48492,3.63693 -13.82033,42.91576 -20.3668,42.91576 -6.54646,0 -18.66956,-33.7022 -21.82157,-32.24743 -3.152,1.45477 -48.007447,-8.48616 -48.492372,-4.36432 -0.484922,4.12185 28.610501,99.89428 171.663002,96.25737 143.05249,-3.63694 169.7233,-107.65307 170.93562,-107.65307 z"
       id="path6" /><g
       id="g11"
       transform="translate(-76.968846,14.213001)"><path
         style="fill:#1a1a1a;stroke:#1a1a1a;stroke-width:0.2;stroke-dasharray:none;stroke-opacity:1"
         d="m 77.076678,-18.154424 v 9.5549601"
         id="path10" /><path
         style="fill:#1a1a1a;stroke:#1a1a1a;stroke-width:0.2;stroke-dasharray:none;stroke-opacity:1"
         d="m 72.139949,-14.173191 h 9.554959"
         id="path11" /></g></g></svg>
